<?xml version="1.0" encoding="UTF-8"?>
<svg id="_Слой_1" data-name="Слой 1" xmlns="http://www.w3.org/2000/svg" xmlns:xlink="http://www.w3.org/1999/xlink" viewBox="0 0 676.285 581.405">
  <defs>
    <style>
      .cls-1 {
        fill: url(#_Безымянный_градиент_86-2);
      }

      .cls-2 {
        fill: url(#_Безымянный_градиент_27-3);
      }

      .cls-3 {
        fill: url(#_Безымянный_градиент_13-48);
      }

      .cls-4 {
        fill: url(#_Безымянный_градиент_13-24);
      }

      .cls-5 {
        fill: url(#_Безымянный_градиент_13-18);
      }

      .cls-6 {
        fill: url(#_Безымянный_градиент_27-2);
      }

      .cls-7 {
        fill: url(#_Безымянный_градиент_61-8);
      }

      .cls-8 {
        fill: url(#_Безымянный_градиент_13-23);
      }

      .cls-9 {
        fill: url(#_Безымянный_градиент_13-43);
      }

      .cls-10 {
        fill: url(#_Безымянный_градиент_13-45);
      }

      .cls-11 {
        fill: url(#_Безымянный_градиент_13-10);
      }

      .cls-12 {
        fill: url(#_Безымянный_градиент_16-8);
        stroke: url(#_Безымянный_градиент_16-9);
      }

      .cls-12, .cls-13, .cls-14, .cls-15, .cls-16 {
        stroke-miterlimit: 10;
      }

      .cls-12, .cls-13, .cls-15, .cls-16 {
        stroke-width: 1.472px;
      }

      .cls-17 {
        fill: url(#_Безымянный_градиент_61-10);
      }

      .cls-18 {
        fill: url(#_Безымянный_градиент_13-46);
      }

      .cls-19 {
        fill: url(#_Безымянный_градиент_13-2);
      }

      .cls-20 {
        fill: url(#_Безымянный_градиент_13-44);
      }

      .cls-21 {
        fill: url(#_Безымянный_градиент_61);
      }

      .cls-22 {
        fill: url(#_Безымянный_градиент_13-15);
      }

      .cls-23 {
        fill: url(#_Безымянный_градиент_61-3);
      }

      .cls-24 {
        fill: url(#_Безымянный_градиент_60);
      }

      .cls-25 {
        fill: url(#_Безымянный_градиент_13-30);
      }

      .cls-26 {
        fill: url(#_Безымянный_градиент_13-17);
      }

      .cls-13 {
        fill: url(#_Безымянный_градиент_16);
        stroke: url(#_Безымянный_градиент_16-2);
      }

      .cls-27 {
        fill: url(#_Безымянный_градиент_61-7);
      }

      .cls-28 {
        fill: url(#_Безымянный_градиент_13-47);
      }

      .cls-29 {
        fill: url(#_Безымянный_градиент_13-25);
      }

      .cls-30 {
        fill: url(#_Безымянный_градиент_13-9);
      }

      .cls-31 {
        fill: url(#_Безымянный_градиент_13-41);
      }

      .cls-14 {
        fill: url(#_Безымянный_градиент_16-10);
        stroke: url(#_Безымянный_градиент_16-11);
        stroke-width: 1.235px;
      }

      .cls-32 {
        fill: url(#_Безымянный_градиент_13-16);
      }

      .cls-33 {
        fill: url(#_Безымянный_градиент_13-28);
      }

      .cls-34 {
        fill: url(#_Безымянный_градиент_13-11);
      }

      .cls-35 {
        fill: url(#_Безымянный_градиент_13-12);
      }

      .cls-36 {
        fill: url(#_Безымянный_градиент_13-38);
      }

      .cls-37 {
        fill: url(#_Безымянный_градиент_13-37);
      }

      .cls-38 {
        fill: url(#_Безымянный_градиент_13-21);
      }

      .cls-39 {
        fill: url(#_Безымянный_градиент_27-4);
      }

      .cls-40 {
        fill: url(#_Безымянный_градиент_9-3);
      }

      .cls-41 {
        fill: url(#_Безымянный_градиент_13-42);
      }

      .cls-42 {
        fill: url(#_Безымянный_градиент_13-40);
      }

      .cls-43 {
        fill: url(#_Безымянный_градиент_61-9);
      }

      .cls-44 {
        fill: url(#_Безымянный_градиент_13-14);
      }

      .cls-45 {
        fill: url(#_Безымянный_градиент_9);
      }

      .cls-46 {
        fill: url(#_Безымянный_градиент_13-39);
      }

      .cls-47 {
        fill: url(#_Безымянный_градиент_16-12);
      }

      .cls-15 {
        fill: url(#_Безымянный_градиент_16-5);
        stroke: url(#_Безымянный_градиент_16-6);
      }

      .cls-48 {
        fill: url(#_Безымянный_градиент_61-5);
      }

      .cls-49 {
        fill: url(#_Безымянный_градиент_13-19);
      }

      .cls-50 {
        fill: url(#_Безымянный_градиент_13-33);
      }

      .cls-51 {
        fill: url(#_Безымянный_градиент_13-31);
      }

      .cls-16 {
        fill: url(#_Безымянный_градиент_16-3);
        stroke: url(#_Безымянный_градиент_16-4);
      }

      .cls-52 {
        fill: url(#_Безымянный_градиент_16-7);
      }

      .cls-53 {
        fill: url(#_Безымянный_градиент_86-3);
      }

      .cls-54 {
        fill: url(#_Безымянный_градиент_13-6);
      }

      .cls-55 {
        fill: url(#_Безымянный_градиент_86-5);
      }

      .cls-56 {
        fill: url(#_Безымянный_градиент_13-36);
      }

      .cls-57 {
        fill: url(#_Безымянный_градиент_61-2);
      }

      .cls-58 {
        fill: url(#_Безымянный_градиент_13-26);
      }

      .cls-59 {
        fill: url(#_Безымянный_градиент_86-4);
      }

      .cls-60 {
        fill: url(#_Безымянный_градиент_13-7);
      }

      .cls-61 {
        fill: url(#_Безымянный_градиент_13-35);
      }

      .cls-62 {
        fill: url(#_Безымянный_градиент_9-2);
      }

      .cls-63 {
        fill: url(#_Безымянный_градиент_29);
      }

      .cls-64 {
        fill: url(#_Безымянный_градиент_13-8);
      }

      .cls-65 {
        fill: url(#_Безымянный_градиент_13);
      }

      .cls-66 {
        fill: url(#_Безымянный_градиент_84);
      }

      .cls-67 {
        fill: url(#_Безымянный_градиент_61-6);
      }

      .cls-68 {
        fill: url(#_Безымянный_градиент_13-20);
      }

      .cls-69 {
        fill: url(#_Безымянный_градиент_13-5);
      }

      .cls-70 {
        fill: url(#_Безымянный_градиент_27);
      }

      .cls-71 {
        fill: url(#_Безымянный_градиент_61-4);
      }

      .cls-72 {
        fill: url(#_Безымянный_градиент_13-32);
      }

      .cls-73 {
        fill: url(#_Безымянный_градиент_13-34);
      }

      .cls-74 {
        fill: url(#_Безымянный_градиент_13-4);
      }

      .cls-75 {
        fill: url(#_Безымянный_градиент_13-22);
      }

      .cls-76 {
        fill: url(#_Безымянный_градиент_13-13);
      }

      .cls-77 {
        fill: url(#_Безымянный_градиент_86);
      }

      .cls-78 {
        fill: url(#_Безымянный_градиент_13-27);
      }

      .cls-79 {
        fill: url(#_Безымянный_градиент_13-3);
      }

      .cls-80 {
        fill: url(#_Безымянный_градиент_13-29);
      }
    </style>
    <linearGradient id="_Безымянный_градиент_13" data-name="Безымянный градиент 13" x1="8.446" y1="558.717" x2="8.446" y2="576.283" gradientUnits="userSpaceOnUse">
      <stop offset=".349" stop-color="#1b1464"/>
      <stop offset="1" stop-color="#29abe2"/>
    </linearGradient>
    <linearGradient id="_Безымянный_градиент_13-2" data-name="Безымянный градиент 13" x1="30.168" x2="30.168" xlink:href="#_Безымянный_градиент_13"/>
    <linearGradient id="_Безымянный_градиент_13-3" data-name="Безымянный градиент 13" x1="53.018" y1="551.61" x2="53.018" y2="576.719" xlink:href="#_Безымянный_градиент_13"/>
    <linearGradient id="_Безымянный_градиент_13-4" data-name="Безымянный градиент 13" x1="73.026" y1="558.283" x2="73.026" y2="576.719" xlink:href="#_Безымянный_градиент_13"/>
    <linearGradient id="_Безымянный_градиент_13-5" data-name="Безымянный градиент 13" x1="93.795" y1="558.283" x2="93.795" y2="581.405" xlink:href="#_Безымянный_градиент_13"/>
    <linearGradient id="_Безымянный_градиент_13-6" data-name="Безымянный градиент 13" x1="114.714" x2="114.714" xlink:href="#_Безымянный_градиент_13"/>
    <linearGradient id="_Безымянный_градиент_13-7" data-name="Безымянный градиент 13" x1="142.501" y1="558.283" x2="142.501" y2="576.719" xlink:href="#_Безымянный_градиент_13"/>
    <linearGradient id="_Безымянный_градиент_13-8" data-name="Безымянный градиент 13" x1="162.644" y1="558.283" x2="162.644" y2="576.719" xlink:href="#_Безымянный_градиент_13"/>
    <linearGradient id="_Безымянный_градиент_13-9" data-name="Безымянный градиент 13" x1="181.945" y1="558.283" x2="181.945" y2="576.719" xlink:href="#_Безымянный_градиент_13"/>
    <linearGradient id="_Безымянный_градиент_13-10" data-name="Безымянный градиент 13" x1="202.061" x2="202.061" y2="580.721" xlink:href="#_Безымянный_градиент_13"/>
    <linearGradient id="_Безымянный_градиент_13-11" data-name="Безымянный градиент 13" x1="222.695" y1="558.283" x2="222.695" y2="576.719" xlink:href="#_Безымянный_градиент_13"/>
    <linearGradient id="_Безымянный_градиент_13-12" data-name="Безымянный градиент 13" x1="242.579" x2="242.579" xlink:href="#_Безымянный_градиент_13"/>
    <linearGradient id="_Безымянный_градиент_13-13" data-name="Безымянный градиент 13" x1="261.54" y1="558.283" x2="261.54" y2="576.719" xlink:href="#_Безымянный_градиент_13"/>
    <linearGradient id="_Безымянный_градиент_13-14" data-name="Безымянный градиент 13" x1="279.97" x2="279.97" xlink:href="#_Безымянный_градиент_13"/>
    <linearGradient id="_Безымянный_градиент_13-15" data-name="Безымянный градиент 13" x1="298.127" x2="298.127" xlink:href="#_Безымянный_градиент_13"/>
    <linearGradient id="_Безымянный_градиент_13-16" data-name="Безымянный градиент 13" x1="309.92" y1="571.473" x2="309.92" y2="580.566" xlink:href="#_Безымянный_градиент_13"/>
    <linearGradient id="_Безымянный_градиент_13-17" data-name="Безымянный градиент 13" x1="329.437" y1="558.283" x2="329.437" y2="576.719" xlink:href="#_Безымянный_градиент_13"/>
    <linearGradient id="_Безымянный_градиент_13-18" data-name="Безымянный градиент 13" x1="356.735" x2="356.735" xlink:href="#_Безымянный_градиент_13"/>
    <linearGradient id="_Безымянный_градиент_13-19" data-name="Безымянный градиент 13" x1="376.553" y1="558.283" x2="376.553" y2="576.719" xlink:href="#_Безымянный_градиент_13"/>
    <linearGradient id="_Безымянный_градиент_13-20" data-name="Безымянный градиент 13" x1="403.551" x2="403.551" xlink:href="#_Безымянный_градиент_13"/>
    <linearGradient id="_Безымянный_градиент_13-21" data-name="Безымянный градиент 13" x1="424.769" y1="558.283" x2="424.769" y2="581.405" xlink:href="#_Безымянный_градиент_13"/>
    <linearGradient id="_Безымянный_градиент_13-22" data-name="Безымянный градиент 13" x1="445.443" y1="558.283" x2="445.443" y2="576.719" xlink:href="#_Безымянный_градиент_13"/>
    <linearGradient id="_Безымянный_градиент_13-23" data-name="Безымянный градиент 13" x1="465.777" y1="558.283" x2="465.777" y2="576.719" xlink:href="#_Безымянный_градиент_13"/>
    <linearGradient id="_Безымянный_градиент_13-24" data-name="Безымянный градиент 13" x1="483.391" x2="483.391" xlink:href="#_Безымянный_градиент_13"/>
    <linearGradient id="_Безымянный_градиент_13-25" data-name="Безымянный градиент 13" x1="501.644" y1="558.283" x2="501.644" y2="576.719" xlink:href="#_Безымянный_градиент_13"/>
    <linearGradient id="_Безымянный_градиент_13-26" data-name="Безымянный градиент 13" x1="529.187" y1="558.283" x2="529.187" y2="576.719" xlink:href="#_Безымянный_градиент_13"/>
    <linearGradient id="_Безымянный_градиент_13-27" data-name="Безымянный градиент 13" x1="551.819" x2="551.819" xlink:href="#_Безымянный_градиент_13"/>
    <linearGradient id="_Безымянный_градиент_13-28" data-name="Безымянный градиент 13" x1="575.092" y1="558.283" x2="575.092" y2="576.719" xlink:href="#_Безымянный_градиент_13"/>
    <linearGradient id="_Безымянный_градиент_13-29" data-name="Безымянный градиент 13" x1="593.344" x2="593.344" xlink:href="#_Безымянный_градиент_13"/>
    <linearGradient id="_Безымянный_градиент_13-30" data-name="Безымянный градиент 13" x1="612.958" y1="558.283" x2="612.958" y2="581.405" xlink:href="#_Безымянный_градиент_13"/>
    <linearGradient id="_Безымянный_градиент_13-31" data-name="Безымянный градиент 13" x1="632.884" y1="558.283" x2="632.884" y2="576.719" xlink:href="#_Безымянный_градиент_13"/>
    <linearGradient id="_Безымянный_градиент_13-32" data-name="Безымянный градиент 13" x1="650.361" x2="650.361" xlink:href="#_Безымянный_градиент_13"/>
    <linearGradient id="_Безымянный_градиент_13-33" data-name="Безымянный градиент 13" x1="668.519" x2="668.519" xlink:href="#_Безымянный_градиент_13"/>
    <linearGradient id="_Безымянный_градиент_13-34" data-name="Безымянный градиент 13" x1="379.99" y1="504.606" x2="379.99" y2="539.52" xlink:href="#_Безымянный_градиент_13"/>
    <linearGradient id="_Безымянный_градиент_13-35" data-name="Безымянный градиент 13" x1="106.235" y1="504.135" x2="106.235" y2="540.053" xlink:href="#_Безымянный_градиент_13"/>
    <linearGradient id="_Безымянный_градиент_13-36" data-name="Безымянный градиент 13" x1="614.795" y1="504.606" x2="614.795" y2="539.52" xlink:href="#_Безымянный_градиент_13"/>
    <linearGradient id="_Безымянный_градиент_13-37" data-name="Безымянный градиент 13" x1="62.27" y1="504.304" x2="62.27" y2="539.52" xlink:href="#_Безымянный_градиент_13"/>
    <linearGradient id="_Безымянный_градиент_13-38" data-name="Безымянный градиент 13" x1="150.896" y1="504.441" x2="150.896" y2="539.52" xlink:href="#_Безымянный_градиент_13"/>
    <linearGradient id="_Безымянный_градиент_13-39" data-name="Безымянный градиент 13" x1="273.764" y1="504.444" x2="273.764" y2="539.52" xlink:href="#_Безымянный_градиент_13"/>
    <linearGradient id="_Безымянный_градиент_13-40" data-name="Безымянный градиент 13" x1="520.918" y1="504.606" x2="520.918" y2="539.52" xlink:href="#_Безымянный_градиент_13"/>
    <linearGradient id="_Безымянный_градиент_13-41" data-name="Безымянный градиент 13" x1="316.066" y1="504.36" x2="316.066" y2="539.52" xlink:href="#_Безымянный_градиент_13"/>
    <linearGradient id="_Безымянный_градиент_13-42" data-name="Безымянный градиент 13" x1="232.472" y1="504.606" x2="232.472" y2="539.52" xlink:href="#_Безымянный_градиент_13"/>
    <linearGradient id="_Безымянный_градиент_13-43" data-name="Безымянный градиент 13" x1="477.558" y1="504.606" x2="477.558" y2="539.52" xlink:href="#_Безымянный_градиент_13"/>
    <linearGradient id="_Безымянный_градиент_13-44" data-name="Безымянный градиент 13" x1="566.184" y1="504.462" x2="566.184" y2="539.52" xlink:href="#_Безымянный_градиент_13"/>
    <linearGradient id="_Безымянный_градиент_13-45" data-name="Безымянный градиент 13" x1="18.292" y1="504.606" x2="18.292" y2="539.52" xlink:href="#_Безымянный_градиент_13"/>
    <linearGradient id="_Безымянный_градиент_13-46" data-name="Безымянный градиент 13" x1="657.577" y1="504.7" x2="657.577" y2="539.52" xlink:href="#_Безымянный_градиент_13"/>
    <linearGradient id="_Безымянный_градиент_13-47" data-name="Безымянный градиент 13" x1="421.327" y1="504.606" x2="421.327" y2="539.52" xlink:href="#_Безымянный_градиент_13"/>
    <linearGradient id="_Безымянный_градиент_13-48" data-name="Безымянный градиент 13" x1="192.469" y1="504.606" x2="192.469" y2="539.52" xlink:href="#_Безымянный_градиент_13"/>
    <linearGradient id="_Безымянный_градиент_84" data-name="Безымянный градиент 84" x1="471.973" y1="283.16" x2="540.776" y2="283.16" gradientUnits="userSpaceOnUse">
      <stop offset=".17" stop-color="#6afff4"/>
      <stop offset=".902" stop-color="#00d496"/>
    </linearGradient>
    <linearGradient id="_Безымянный_градиент_86" data-name="Безымянный градиент 86" x1="483.933" y1="227.951" x2="483.933" y2="240.053" gradientUnits="userSpaceOnUse">
      <stop offset=".049" stop-color="#6afff4"/>
      <stop offset=".902" stop-color="#00d496"/>
    </linearGradient>
    <linearGradient id="_Безымянный_градиент_86-2" data-name="Безымянный градиент 86" x1="494.765" x2="494.765" xlink:href="#_Безымянный_градиент_86"/>
    <linearGradient id="_Безымянный_градиент_86-3" data-name="Безымянный градиент 86" x1="505.588" x2="505.588" xlink:href="#_Безымянный_градиент_86"/>
    <linearGradient id="_Безымянный_градиент_86-4" data-name="Безымянный градиент 86" x1="517.924" y1="227.778" x2="517.924" y2="240.256" xlink:href="#_Безымянный_градиент_86"/>
    <linearGradient id="_Безымянный_градиент_86-5" data-name="Безымянный градиент 86" x1="529.456" x2="529.456" xlink:href="#_Безымянный_градиент_86"/>
    <linearGradient id="_Безымянный_градиент_16" data-name="Безымянный градиент 16" x1="144.75" y1="275.239" x2="585.305" y2="275.239" gradientUnits="userSpaceOnUse">
      <stop offset=".17" stop-color="#1b1464"/>
      <stop offset=".902" stop-color="#29abe2"/>
    </linearGradient>
    <linearGradient id="_Безымянный_градиент_16-2" data-name="Безымянный градиент 16" x1="144.014" y1="275.156" x2="586.041" y2="275.156" xlink:href="#_Безымянный_градиент_16"/>
    <linearGradient id="_Безымянный_градиент_16-3" data-name="Безымянный градиент 16" x1="506.218" y1="59.942" x2="598.854" y2="59.942" xlink:href="#_Безымянный_градиент_16"/>
    <linearGradient id="_Безымянный_градиент_16-4" data-name="Безымянный градиент 16" x1="505.482" y1="60.117" x2="599.59" y2="60.117" xlink:href="#_Безымянный_градиент_16"/>
    <linearGradient id="_Безымянный_градиент_16-5" data-name="Безымянный градиент 16" x1="506.218" y1="130.243" x2="598.854" y2="130.243" xlink:href="#_Безымянный_градиент_16"/>
    <linearGradient id="_Безымянный_градиент_16-6" data-name="Безымянный градиент 16" x1="505.482" y1="130.146" x2="599.59" y2="130.146" xlink:href="#_Безымянный_градиент_16"/>
    <linearGradient id="_Безымянный_градиент_29" data-name="Безымянный градиент 29" x1="438.573" y1="51.834" x2="499.902" y2="51.834" gradientUnits="userSpaceOnUse">
      <stop offset=".152" stop-color="#c83d26"/>
      <stop offset=".736" stop-color="#f16529"/>
    </linearGradient>
    <linearGradient id="_Безымянный_градиент_27" data-name="Безымянный градиент 27" x1="445.397" y1="6.135" x2="456.09" y2="6.135" gradientUnits="userSpaceOnUse">
      <stop offset=".152" stop-color="#e44d26"/>
      <stop offset=".736" stop-color="#f16529"/>
    </linearGradient>
    <linearGradient id="_Безымянный_градиент_27-2" data-name="Безымянный градиент 27" x1="457.668" x2="467.747" xlink:href="#_Безымянный_градиент_27"/>
    <linearGradient id="_Безымянный_градиент_27-3" data-name="Безымянный градиент 27" x1="469.325" x2="483.594" xlink:href="#_Безымянный_градиент_27"/>
    <linearGradient id="_Безымянный_градиент_27-4" data-name="Безымянный градиент 27" x1="485.698" x2="493.604" xlink:href="#_Безымянный_градиент_27"/>
    <linearGradient id="_Безымянный_градиент_16-7" data-name="Безымянный градиент 16" x1="557.956" y1="211.838" x2="617.372" y2="211.838" gradientTransform="translate(.662 3.444) rotate(-.112)" xlink:href="#_Безымянный_градиент_16"/>
    <linearGradient id="_Безымянный_градиент_9" data-name="Безымянный градиент 9" x1="577.197" y1="162.411" x2="577.197" y2="174.596" gradientTransform="translate(.662 3.444) rotate(-.112)" gradientUnits="userSpaceOnUse">
      <stop offset=".17" stop-color="#1b1464"/>
      <stop offset=".742" stop-color="#1c1b6a"/>
      <stop offset="1" stop-color="#29abe2"/>
    </linearGradient>
    <linearGradient id="_Безымянный_градиент_9-2" data-name="Безымянный градиент 9" x1="588.213" y1="162.391" x2="588.213" y2="174.55" xlink:href="#_Безымянный_градиент_9"/>
    <linearGradient id="_Безымянный_градиент_9-3" data-name="Безымянный градиент 9" x1="598.596" y1="162.391" x2="598.596" y2="174.55" xlink:href="#_Безымянный_градиент_9"/>
    <linearGradient id="_Безымянный_градиент_60" data-name="Безымянный градиент 60" x1="512.051" y1="121.957" x2="572.81" y2="121.957" gradientUnits="userSpaceOnUse">
      <stop offset=".17" stop-color="#e48b26"/>
      <stop offset=".902" stop-color="#e9dd00"/>
    </linearGradient>
    <linearGradient id="_Безымянный_градиент_61" data-name="Безымянный градиент 61" x1="514.687" y1="78.651" x2="514.687" y2="87.437" gradientUnits="userSpaceOnUse">
      <stop offset=".17" stop-color="#e48b26"/>
      <stop offset=".955" stop-color="#e9dd00"/>
    </linearGradient>
    <linearGradient id="_Безымянный_градиент_61-2" data-name="Безымянный градиент 61" x1="520.637" x2="520.637" y2="87.337" xlink:href="#_Безымянный_градиент_61"/>
    <linearGradient id="_Безымянный_градиент_61-3" data-name="Безымянный градиент 61" x1="527.835" x2="527.835" y2="87.337" xlink:href="#_Безымянный_градиент_61"/>
    <linearGradient id="_Безымянный_градиент_61-4" data-name="Безымянный градиент 61" x1="534.458" x2="534.458" y2="87.337" xlink:href="#_Безымянный_градиент_61"/>
    <linearGradient id="_Безымянный_градиент_61-5" data-name="Безымянный градиент 61" x1="540.96" y1="78.512" x2="540.96" y2="87.45" xlink:href="#_Безымянный_градиент_61"/>
    <linearGradient id="_Безымянный_градиент_61-6" data-name="Безымянный градиент 61" x1="547.218" y1="78.527" x2="547.218" y2="87.483" xlink:href="#_Безымянный_градиент_61"/>
    <linearGradient id="_Безымянный_градиент_61-7" data-name="Безымянный градиент 61" x1="553.979" x2="553.979" y2="87.337" xlink:href="#_Безымянный_градиент_61"/>
    <linearGradient id="_Безымянный_градиент_61-8" data-name="Безымянный градиент 61" x1="558.532" x2="558.532" y2="87.337" xlink:href="#_Безымянный_градиент_61"/>
    <linearGradient id="_Безымянный_градиент_61-9" data-name="Безымянный градиент 61" x1="563.224" x2="563.224" y2="87.337" xlink:href="#_Безымянный_градиент_61"/>
    <linearGradient id="_Безымянный_градиент_61-10" data-name="Безымянный градиент 61" x1="569.241" x2="569.241" y2="87.337" xlink:href="#_Безымянный_градиент_61"/>
    <linearGradient id="_Безымянный_градиент_16-8" data-name="Безымянный градиент 16" x1="136.292" y1="236.848" x2="587.135" y2="236.848" xlink:href="#_Безымянный_градиент_16"/>
    <linearGradient id="_Безымянный_градиент_16-9" data-name="Безымянный градиент 16" x1="135.556" y1="236.966" x2="587.819" y2="236.966" xlink:href="#_Безымянный_градиент_16"/>
    <linearGradient id="_Безымянный_градиент_16-10" data-name="Безымянный градиент 16" x1="682.787" y1="-1223.128" x2="1052.42" y2="-1223.128" gradientTransform="translate(885.776 1637.317) rotate(-53.775)" xlink:href="#_Безымянный_градиент_16"/>
    <linearGradient id="_Безымянный_градиент_16-11" data-name="Безымянный градиент 16" x1="682.17" y1="-1223.094" x2="1053.038" y2="-1223.094" gradientTransform="translate(885.776 1637.317) rotate(-53.775)" xlink:href="#_Безымянный_градиент_16"/>
    <linearGradient id="_Безымянный_градиент_16-12" data-name="Безымянный градиент 16" x1="459.207" y1="288.781" x2="471.117" y2="288.781" xlink:href="#_Безымянный_градиент_16"/>
  </defs>
  <g>
    <path class="cls-65" d="M0,576.283v-17.567h11.153c1.487,0,2.652.394,3.496,1.18s1.265,1.872,1.265,3.259c0,1.282-.422,2.312-1.265,3.087-.843.776-2.018,1.237-3.524,1.381l.273-.745c1.777.041,3.137.456,4.081,1.242.942.786,1.414,1.893,1.414,3.321,0,1.51-.475,2.695-1.428,3.553-.952.859-2.271,1.288-3.957,1.288H0ZM3.427,575.29l-1.36-1.8h8.541c.962,0,1.655-.212,2.082-.636.425-.424.639-1.019.639-1.784,0-.683-.24-1.252-.72-1.708-.481-.455-1.283-.683-2.407-.683H2.067v-2.607h7.618c.924,0,1.6-.212,2.026-.636.427-.424.64-.977.64-1.66,0-.662-.186-1.205-.558-1.63s-.992-.636-1.864-.636H2.094l1.333-1.77v15.549Z"/>
    <path class="cls-19" d="M19.749,576.283v-17.567h3.537v16.449l-1.252-1.862h6.583c.962,0,1.714-.273,2.258-.821.544-.548.815-1.299.815-2.251,0-.971-.272-1.732-.815-2.28-.545-.548-1.297-.823-2.258-.823h-6.474v-2.886h6.937c1.25,0,2.339.254,3.264.761s1.645,1.21,2.162,2.11c.517.901.775,1.951.775,3.151s-.258,2.255-.775,3.165-1.237,1.614-2.162,2.111c-.925.496-2.004.745-3.237.745h-9.358ZM37.05,558.717h3.537v17.567h-3.537v-17.567Z"/>
    <path class="cls-79" d="M53.48,576.719c-2.049,0-3.804-.461-5.263-1.382-1.46-.92-2.575-2.25-3.347-3.988-.77-1.738-1.155-3.827-1.155-6.27,0-3.641.834-6.517,2.502-8.628,1.669-2.11,4.054-3.31,7.154-3.6,1.252-.123,2.289-.227,3.115-.31.825-.083,1.5-.171,2.026-.264.527-.093.975-.19,1.347-.295.372-.102.73-.227,1.075-.372v3.444c-.345.166-.807.316-1.387.451-.581.134-1.315.243-2.204.325-.89.083-1.977.166-3.265.249-2.43.145-4.261.973-5.494,2.483s-1.85,3.662-1.85,6.455v.993l-.19-.247c.399-1.221.975-2.256,1.727-3.104s1.655-1.5,2.707-1.955,2.204-.683,3.454-.683c1.578,0,2.957.341,4.135,1.024s2.099,1.641,2.761,2.87c.662,1.232.993,2.664.993,4.299,0,1.719-.367,3.213-1.102,4.485-.734,1.272-1.764,2.261-3.087,2.964s-2.875,1.055-4.652,1.055ZM53.561,573.552c1.052,0,1.963-.217,2.734-.652.772-.434,1.37-1.049,1.795-1.846.427-.796.64-1.722.64-2.778s-.213-1.976-.64-2.762c-.425-.786-1.024-1.397-1.795-1.832-.77-.434-1.682-.651-2.734-.651-1.414,0-2.662.434-3.741,1.303s-1.881,2.1-2.407,3.693c.308,1.698,1.01,3.042,2.109,4.035,1.097.993,2.444,1.489,4.039,1.489Z"/>
    <path class="cls-74" d="M73.666,576.719c-1.795,0-3.392-.389-4.787-1.164-1.397-.776-2.495-1.857-3.292-3.243-.798-1.387-1.197-3.001-1.197-4.842,0-1.821.375-3.419,1.129-4.795.752-1.376,1.795-2.452,3.129-3.227,1.332-.776,2.861-1.164,4.584-1.164s3.214.44,4.474,1.319c1.26.88,2.235,2.116,2.924,3.709.69,1.593,1.035,3.466,1.035,5.617h-14.5v-3.073h12.732l-1.768,1.148c-.055-1.158-.295-2.151-.72-2.979-.427-.828-.998-1.464-1.715-1.91-.715-.444-1.564-.667-2.542-.667-1.035,0-1.937.238-2.707.714-.772.475-1.374,1.143-1.809,2.001-.435.859-.653,1.878-.653,3.057,0,1.304.258,2.432.775,3.383s1.252,1.681,2.204,2.188,2.08.761,3.387.761c1.179,0,2.384-.212,3.617-.636s2.322-1.019,3.264-1.784v2.918c-.942.828-2.09,1.478-3.441,1.955-1.352.475-2.725.714-4.121.714Z"/>
    <path class="cls-69" d="M84.573,558.717h3.537v6.115l-.163.62v3.538l.163,1.086v11.329h-3.537v-22.688ZM86.749,567.501c.344-1.862.915-3.481,1.714-4.858.797-1.375,1.782-2.446,2.951-3.212,1.17-.765,2.472-1.148,3.904-1.148,1.505,0,2.839.388,3.999,1.164,1.16.775,2.067,1.851,2.72,3.227s.98,2.985.98,4.826c0,1.821-.327,3.424-.98,4.811-.653,1.386-1.56,2.467-2.72,3.243-1.16.775-2.494,1.164-3.999,1.164-1.432,0-2.729-.384-3.89-1.149-1.16-.765-2.144-1.84-2.951-3.227-.807-1.386-1.383-2.999-1.727-4.841ZM99.425,567.501c0-1.18-.213-2.219-.639-3.12-.427-.899-1.012-1.603-1.755-2.11s-1.595-.761-2.557-.761-1.864.254-2.707.761c-.842.507-1.582,1.21-2.217,2.11-.635.901-1.152,1.94-1.55,3.12.399,1.179.915,2.218,1.55,3.119.635.899,1.375,1.604,2.217,2.11.843.508,1.745.761,2.707.761s1.814-.252,2.557-.761c.743-.506,1.328-1.21,1.755-2.11.425-.901.639-1.94.639-3.119Z"/>
    <path class="cls-54" d="M105.954,576.283v-17.567h3.482v15.549l-1.062-.279,10.528-15.27h4.571v17.567h-3.482v-15.766l1.088.311-10.665,15.456h-4.461Z"/>
    <path class="cls-60" d="M151.437,569.362c-.182,1.449-.68,2.726-1.497,3.833-.817,1.108-1.859,1.971-3.129,2.592-1.269.62-2.684.931-4.243.931-1.778,0-3.342-.389-4.694-1.164-1.35-.776-2.407-1.857-3.169-3.243-.762-1.387-1.142-2.99-1.142-4.811s.38-3.425,1.142-4.811c.762-1.387,1.818-2.468,3.169-3.243,1.352-.776,2.915-1.164,4.694-1.164,1.559,0,2.974.31,4.243.931,1.27.62,2.312,1.485,3.129,2.591s1.315,2.395,1.497,3.864h-3.564c-.255-1.324-.862-2.358-1.823-3.103-.96-.745-2.122-1.118-3.481-1.118-1.088,0-2.04.244-2.857.729-.817.486-1.447,1.18-1.89,2.08-.445.899-.667,1.981-.667,3.243,0,1.241.222,2.317.667,3.227.444.91,1.074,1.609,1.89,2.095s1.768.729,2.857.729c1.377,0,2.547-.383,3.509-1.148.96-.765,1.559-1.779,1.795-3.042h3.564Z"/>
    <path class="cls-64" d="M162.644,576.719c-1.868,0-3.505-.389-4.911-1.164-1.405-.776-2.502-1.857-3.291-3.243-.79-1.387-1.183-2.99-1.183-4.811,0-1.842.394-3.45,1.183-4.826.789-1.376,1.885-2.452,3.291-3.227,1.405-.776,3.042-1.164,4.911-1.164s3.504.388,4.911,1.164c1.405.775,2.502,1.851,3.291,3.227.79,1.376,1.183,2.985,1.183,4.826,0,1.821-.394,3.424-1.183,4.811-.789,1.386-1.885,2.467-3.291,3.243-1.406.775-3.043,1.164-4.911,1.164ZM162.644,573.552c1.197,0,2.226-.249,3.087-.745s1.528-1.194,2-2.095c.47-.899.707-1.971.707-3.212s-.236-2.313-.707-3.213c-.472-.899-1.138-1.598-2-2.095-.862-.496-1.89-.745-3.087-.745-1.179,0-2.204.249-3.074.745-.87.497-1.542,1.196-2.013,2.095s-.707,1.971-.707,3.213.235,2.312.707,3.212c.472.901,1.143,1.599,2.013,2.095s1.895.745,3.074.745Z"/>
    <path class="cls-30" d="M182.094,576.719c-1.632,0-3.06-.249-4.284-.746-1.224-.496-2.185-1.21-2.884-2.141s-1.084-2.038-1.155-3.32h3.427c.145,1.014.639,1.784,1.482,2.312s1.982.791,3.414.791c1.378,0,2.457-.212,3.237-.636s1.17-1.081,1.17-1.971c0-.724-.322-1.261-.965-1.614-.645-.352-1.665-.528-3.06-.528h-3.047v-2.793h2.965c1.252,0,2.18-.217,2.789-.652.607-.434.91-.971.91-1.614,0-.786-.363-1.386-1.088-1.8-.725-.413-1.677-.62-2.856-.62-1.305,0-2.367.238-3.182.714-.817.475-1.297,1.19-1.442,2.141h-3.428c.091-1.118.467-2.127,1.13-3.026.662-.899,1.591-1.614,2.787-2.141s2.62-.791,4.272-.791c1.504,0,2.811.217,3.917.651,1.105.435,1.962,1.03,2.57,1.786.607.754.91,1.619.91,2.591,0,.786-.213,1.51-.639,2.172-.427.663-1.088,1.191-1.985,1.583-.898.394-2.055.59-3.469.59v-.528c2.067-.083,3.672.233,4.814.947,1.143.713,1.715,1.775,1.715,3.181,0,1.055-.313,1.996-.938,2.824-.626.828-1.538,1.475-2.735,1.94s-2.647.698-4.352.698Z"/>
    <path class="cls-11" d="M212.833,573.18v7.541h-3.074v-4.438h-15.397v4.438h-3.074v-7.541h3.972l.979.061h11.235l.87-.061h4.489ZM194.716,558.717h15.262v16.387h-3.537v-15.145l1.632,1.862h-11.507l1.524-1.366c.09.91.15,1.784.177,2.623.027.837.041,1.619.041,2.343,0,3.021-.358,5.391-1.075,7.108s-1.719,2.575-3.006,2.575l-1.442-1.397c1.487-1.241,2.23-4.262,2.23-9.062,0-.931-.027-1.898-.082-2.902-.055-1.003-.127-2.012-.218-3.026Z"/>
    <path class="cls-34" d="M221.076,564.862c2.267-.083,4.049.093,5.346.528,1.296.434,2.007.781,2.135,1.04.127.26.19,1.703.19,4.329,0,.518-.182,1.118-.544,1.8-.363.683-.88,1.341-1.552,1.971-.67.631-1.478,1.154-2.421,1.567-.943.414-1.995.622-3.155.622-1.27,0-2.407-.239-3.414-.714-1.007-.477-1.8-1.159-2.38-2.049s-.87-1.944-.87-3.165.294-2.271.884-3.151c.589-.879,1.387-1.552,2.394-2.017s2.135-.719,3.387-.761ZM227.442,566.289c0-1.489-.458-2.658-1.374-3.506-.917-.848-2.308-1.272-4.177-1.272-.997,0-2.031.145-3.101.434-1.07.29-2.094.767-3.074,1.428v-3.135c1.07-.683,2.172-1.18,3.305-1.489,1.133-.311,2.344-.466,3.631-.466,1.669,0,3.124.3,4.367.899,1.242.601,2.212,1.489,2.91,2.669.697,1.18,1.047,2.648,1.047,4.407v10.025h-3.509l-.027-9.994ZM223.238,567.872c-2.004,0-3.377.264-4.121.791-.743.528-1.115,1.216-1.115,2.065s.367,1.536,1.102,2.063c.734.528,1.754.792,3.06.792,1.541,0,2.806-.502,3.794-1.505.988-1.004,1.483-2.157,1.483-3.461-.798-.496-2.2-.745-4.204-.745Z"/>
    <path class="cls-35" d="M234.133,576.283v-17.567h11.153c1.487,0,2.652.394,3.496,1.18s1.265,1.872,1.265,3.259c0,1.282-.422,2.312-1.265,3.087-.843.776-2.018,1.237-3.524,1.381l.273-.745c1.777.041,3.137.456,4.081,1.242.942.786,1.414,1.893,1.414,3.321,0,1.51-.475,2.695-1.428,3.553-.952.859-2.271,1.288-3.957,1.288h-11.507ZM237.56,575.29l-1.36-1.8h8.541c.962,0,1.655-.212,2.082-.636.425-.424.639-1.019.639-1.784,0-.683-.24-1.252-.72-1.708-.481-.455-1.283-.683-2.407-.683h-8.134v-2.607h7.618c.924,0,1.6-.212,2.026-.636.427-.424.64-.977.64-1.66,0-.662-.186-1.205-.558-1.63s-.992-.636-1.864-.636h-7.834l1.333-1.77v15.549Z"/>
    <path class="cls-76" d="M259.922,564.862c2.267-.083,4.049.093,5.346.528,1.296.434,2.007.781,2.135,1.04.127.26.19,1.703.19,4.329,0,.518-.182,1.118-.544,1.8-.363.683-.88,1.341-1.552,1.971-.67.631-1.478,1.154-2.421,1.567-.943.414-1.995.622-3.155.622-1.27,0-2.407-.239-3.414-.714-1.007-.477-1.8-1.159-2.38-2.049s-.87-1.944-.87-3.165.294-2.271.884-3.151c.589-.879,1.387-1.552,2.394-2.017s2.135-.719,3.387-.761ZM266.287,566.289c0-1.489-.458-2.658-1.374-3.506-.917-.848-2.308-1.272-4.177-1.272-.997,0-2.031.145-3.101.434-1.07.29-2.094.767-3.074,1.428v-3.135c1.07-.683,2.172-1.18,3.305-1.489,1.133-.311,2.344-.466,3.631-.466,1.669,0,3.124.3,4.367.899,1.242.601,2.212,1.489,2.91,2.669.697,1.18,1.047,2.648,1.047,4.407v10.025h-3.509l-.027-9.994ZM262.084,567.872c-2.004,0-3.377.264-4.121.791-.743.528-1.115,1.216-1.115,2.065s.367,1.536,1.102,2.063c.734.528,1.754.792,3.06.792,1.541,0,2.806-.502,3.794-1.505.988-1.004,1.483-2.157,1.483-3.461-.798-.496-2.2-.745-4.204-.745Z"/>
    <path class="cls-44" d="M271.809,558.717h16.322v3.166h-16.322v-3.166ZM278.201,560.114h3.537v16.17h-3.537v-16.17Z"/>
    <path class="cls-22" d="M290.361,576.283v-17.567h3.537v16.449l-1.252-1.862h6.583c.962,0,1.714-.273,2.258-.821.544-.548.815-1.299.815-2.251,0-.971-.272-1.732-.815-2.28-.545-.548-1.297-.823-2.258-.823h-6.474v-2.886h6.937c1.25,0,2.339.254,3.264.761s1.645,1.21,2.162,2.11c.517.901.775,1.951.775,3.151s-.258,2.255-.775,3.165-1.237,1.614-2.162,2.111c-.925.496-2.004.745-3.237.745h-9.358Z"/>
    <path class="cls-32" d="M307.58,580.566l2.257-5.555.191,1.459c-.418,0-.795-.115-1.13-.341-.335-.228-.603-.533-.802-.917-.2-.381-.3-.801-.3-1.257,0-.475.1-.899.3-1.272.199-.372.467-.667.802-.885.335-.217.712-.325,1.13-.325.435,0,.82.115,1.155.341.335.228.598.539.789.931.191.394.286.839.286,1.335,0,.477-.091.977-.272,1.505-.182.528-.5,1.215-.953,2.063l-1.495,2.918h-1.959Z"/>
    <path class="cls-26" d="M327.819,564.862c2.267-.083,4.049.093,5.346.528,1.296.434,2.007.781,2.135,1.04.127.26.19,1.703.19,4.329,0,.518-.182,1.118-.544,1.8-.363.683-.88,1.341-1.552,1.971-.67.631-1.478,1.154-2.421,1.567-.943.414-1.995.622-3.155.622-1.27,0-2.407-.239-3.414-.714-1.007-.477-1.8-1.159-2.38-2.049s-.87-1.944-.87-3.165.294-2.271.884-3.151c.589-.879,1.387-1.552,2.394-2.017s2.135-.719,3.387-.761ZM334.184,566.289c0-1.489-.458-2.658-1.374-3.506-.917-.848-2.308-1.272-4.177-1.272-.997,0-2.031.145-3.101.434-1.07.29-2.094.767-3.074,1.428v-3.135c1.07-.683,2.172-1.18,3.305-1.489,1.133-.311,2.344-.466,3.631-.466,1.669,0,3.124.3,4.367.899,1.242.601,2.212,1.489,2.91,2.669.697,1.18,1.047,2.648,1.047,4.407v10.025h-3.509l-.027-9.994ZM329.981,567.872c-2.004,0-3.377.264-4.121.791-.743.528-1.115,1.216-1.115,2.065s.367,1.536,1.102,2.063c.734.528,1.754.792,3.06.792,1.541,0,2.806-.502,3.794-1.505.988-1.004,1.483-2.157,1.483-3.461-.798-.496-2.2-.745-4.204-.745Z"/>
    <path class="cls-5" d="M348.438,558.717h3.509v17.567h-3.509v-17.567ZM350.424,565.824h12.568v3.104h-12.568v-3.104ZM361.523,558.717h3.509v17.567h-3.509v-17.567Z"/>
    <path class="cls-49" d="M377.192,576.719c-1.795,0-3.392-.389-4.787-1.164-1.397-.776-2.495-1.857-3.292-3.243-.798-1.387-1.197-3.001-1.197-4.842,0-1.821.375-3.419,1.129-4.795.752-1.376,1.795-2.452,3.129-3.227,1.332-.776,2.861-1.164,4.584-1.164s3.214.44,4.474,1.319c1.26.88,2.235,2.116,2.924,3.709.69,1.593,1.035,3.466,1.035,5.617h-14.5v-3.073h12.732l-1.768,1.148c-.055-1.158-.295-2.151-.72-2.979-.427-.828-.998-1.464-1.715-1.91-.715-.444-1.564-.667-2.542-.667-1.035,0-1.937.238-2.707.714-.772.475-1.374,1.143-1.809,2.001-.435.859-.653,1.878-.653,3.057,0,1.304.258,2.432.775,3.383s1.252,1.681,2.204,2.188,2.08.761,3.387.761c1.179,0,2.384-.212,3.617-.636s2.322-1.019,3.264-1.784v2.918c-.942.828-2.09,1.478-3.441,1.955-1.352.475-2.725.714-4.121.714Z"/>
    <path class="cls-68" d="M411.794,558.717v17.567h-3.537v-16.294l1.632,1.832h-12.677l1.633-1.832v16.294h-3.537v-17.567h16.486Z"/>
    <path class="cls-38" d="M415.547,558.717h3.537v6.115l-.163.62v3.538l.163,1.086v11.329h-3.537v-22.688ZM417.724,567.501c.344-1.862.915-3.481,1.714-4.858.797-1.375,1.782-2.446,2.951-3.212,1.17-.765,2.472-1.148,3.904-1.148,1.505,0,2.839.388,3.999,1.164,1.16.775,2.067,1.851,2.72,3.227s.98,2.985.98,4.826c0,1.821-.327,3.424-.98,4.811-.653,1.386-1.56,2.467-2.72,3.243-1.16.775-2.494,1.164-3.999,1.164-1.432,0-2.729-.384-3.89-1.149-1.16-.765-2.144-1.84-2.951-3.227-.807-1.386-1.383-2.999-1.727-4.841ZM430.399,567.501c0-1.18-.213-2.219-.639-3.12-.427-.899-1.012-1.603-1.755-2.11s-1.595-.761-2.557-.761-1.864.254-2.707.761c-.842.507-1.582,1.21-2.217,2.11-.635.901-1.152,1.94-1.55,3.12.399,1.179.915,2.218,1.55,3.119.635.899,1.375,1.604,2.217,2.11.843.508,1.745.761,2.707.761s1.814-.252,2.557-.761c.743-.506,1.328-1.21,1.755-2.11.425-.901.639-1.94.639-3.119Z"/>
    <path class="cls-75" d="M445.443,576.719c-1.868,0-3.505-.389-4.911-1.164-1.405-.776-2.502-1.857-3.291-3.243-.79-1.387-1.183-2.99-1.183-4.811,0-1.842.394-3.45,1.183-4.826.789-1.376,1.885-2.452,3.291-3.227,1.405-.776,3.042-1.164,4.911-1.164s3.504.388,4.911,1.164c1.405.775,2.502,1.851,3.291,3.227.79,1.376,1.183,2.985,1.183,4.826,0,1.821-.394,3.424-1.183,4.811-.789,1.386-1.885,2.467-3.291,3.243-1.406.775-3.043,1.164-4.911,1.164ZM445.443,573.552c1.197,0,2.226-.249,3.087-.745s1.528-1.194,2-2.095c.47-.899.707-1.971.707-3.212s-.236-2.313-.707-3.213c-.472-.899-1.138-1.598-2-2.095-.862-.496-1.89-.745-3.087-.745-1.179,0-2.204.249-3.074.745-.87.497-1.542,1.196-2.013,2.095s-.707,1.971-.707,3.213.235,2.312.707,3.212c.472.901,1.143,1.599,2.013,2.095s1.895.745,3.074.745Z"/>
    <path class="cls-8" d="M474.714,569.362c-.182,1.449-.68,2.726-1.497,3.833-.817,1.108-1.859,1.971-3.129,2.592-1.269.62-2.684.931-4.243.931-1.778,0-3.342-.389-4.694-1.164-1.35-.776-2.407-1.857-3.169-3.243-.762-1.387-1.142-2.99-1.142-4.811s.38-3.425,1.142-4.811c.762-1.387,1.818-2.468,3.169-3.243,1.352-.776,2.915-1.164,4.694-1.164,1.559,0,2.974.31,4.243.931,1.27.62,2.312,1.485,3.129,2.591s1.315,2.395,1.497,3.864h-3.564c-.255-1.324-.862-2.358-1.823-3.103-.96-.745-2.122-1.118-3.481-1.118-1.088,0-2.04.244-2.857.729-.817.486-1.447,1.18-1.89,2.08-.445.899-.667,1.981-.667,3.243,0,1.241.222,2.317.667,3.227.444.91,1.074,1.609,1.89,2.095s1.768.729,2.857.729c1.377,0,2.547-.383,3.509-1.148.96-.765,1.559-1.779,1.795-3.042h3.564Z"/>
    <path class="cls-4" d="M475.23,558.717h16.322v3.166h-16.322v-3.166ZM481.623,560.114h3.537v16.17h-3.537v-16.17Z"/>
    <path class="cls-29" d="M501.644,576.719c-1.868,0-3.505-.389-4.911-1.164-1.405-.776-2.502-1.857-3.291-3.243-.79-1.387-1.183-2.99-1.183-4.811,0-1.842.394-3.45,1.183-4.826.789-1.376,1.885-2.452,3.291-3.227,1.405-.776,3.042-1.164,4.911-1.164s3.504.388,4.911,1.164c1.405.775,2.502,1.851,3.291,3.227.79,1.376,1.183,2.985,1.183,4.826,0,1.821-.394,3.424-1.183,4.811-.789,1.386-1.885,2.467-3.291,3.243-1.406.775-3.043,1.164-4.911,1.164ZM501.644,573.552c1.197,0,2.226-.249,3.087-.745s1.528-1.194,2-2.095c.47-.899.707-1.971.707-3.212s-.236-2.313-.707-3.213c-.472-.899-1.138-1.598-2-2.095-.862-.496-1.89-.745-3.087-.745-1.179,0-2.204.249-3.074.745-.87.497-1.542,1.196-2.013,2.095s-.707,1.971-.707,3.213.235,2.312.707,3.212c.472.901,1.143,1.599,2.013,2.095s1.895.745,3.074.745Z"/>
    <path class="cls-58" d="M538.123,569.362c-.182,1.449-.68,2.726-1.497,3.833-.817,1.108-1.859,1.971-3.129,2.592-1.269.62-2.684.931-4.243.931-1.778,0-3.342-.389-4.694-1.164-1.35-.776-2.407-1.857-3.169-3.243-.762-1.387-1.142-2.99-1.142-4.811s.38-3.425,1.142-4.811c.762-1.387,1.818-2.468,3.169-3.243,1.352-.776,2.915-1.164,4.694-1.164,1.559,0,2.974.31,4.243.931,1.27.62,2.312,1.485,3.129,2.591s1.315,2.395,1.497,3.864h-3.564c-.255-1.324-.862-2.358-1.823-3.103-.96-.745-2.122-1.118-3.481-1.118-1.088,0-2.04.244-2.857.729-.817.486-1.447,1.18-1.89,2.08-.445.899-.667,1.981-.667,3.243,0,1.241.222,2.317.667,3.227.444.91,1.074,1.609,1.89,2.095s1.768.729,2.857.729c1.377,0,2.547-.383,3.509-1.148.96-.765,1.559-1.779,1.795-3.042h3.564Z"/>
    <path class="cls-78" d="M540.815,576.283v-17.567h5.251l6.474,15.642h-1.388l6.421-15.642h5.249v17.567h-3.319v-16.232h.925l-6.883,16.232h-3.454l-6.883-16.17.925-.03v16.2h-3.319Z"/>
    <path class="cls-33" d="M575.092,576.719c-1.868,0-3.505-.389-4.911-1.164-1.405-.776-2.502-1.857-3.291-3.243-.79-1.387-1.183-2.99-1.183-4.811,0-1.842.394-3.45,1.183-4.826.789-1.376,1.885-2.452,3.291-3.227,1.405-.776,3.042-1.164,4.911-1.164s3.504.388,4.911,1.164c1.405.775,2.502,1.851,3.291,3.227.79,1.376,1.183,2.985,1.183,4.826,0,1.821-.394,3.424-1.183,4.811-.789,1.386-1.885,2.467-3.291,3.243-1.406.775-3.043,1.164-4.911,1.164ZM575.092,573.552c1.197,0,2.226-.249,3.087-.745s1.528-1.194,2-2.095c.47-.899.707-1.971.707-3.212s-.236-2.313-.707-3.213c-.472-.899-1.138-1.598-2-2.095-.862-.496-1.89-.745-3.087-.745-1.179,0-2.204.249-3.074.745-.87.497-1.542,1.196-2.013,2.095s-.707,1.971-.707,3.213.235,2.312.707,3.212c.472.901,1.143,1.599,2.013,2.095s1.895.745,3.074.745Z"/>
    <path class="cls-80" d="M585.183,558.717h16.322v3.166h-16.322v-3.166ZM591.576,560.114h3.537v16.17h-3.537v-16.17Z"/>
    <path class="cls-25" d="M603.736,558.717h3.537v6.115l-.163.62v3.538l.163,1.086v11.329h-3.537v-22.688ZM605.913,567.501c.344-1.862.915-3.481,1.714-4.858.797-1.375,1.782-2.446,2.951-3.212,1.17-.765,2.472-1.148,3.904-1.148,1.505,0,2.839.388,3.999,1.164,1.16.775,2.067,1.851,2.72,3.227s.98,2.985.98,4.826c0,1.821-.327,3.424-.98,4.811-.653,1.386-1.56,2.467-2.72,3.243-1.16.775-2.494,1.164-3.999,1.164-1.432,0-2.729-.384-3.89-1.149-1.16-.765-2.144-1.84-2.951-3.227-.807-1.386-1.383-2.999-1.727-4.841ZM618.588,567.501c0-1.18-.213-2.219-.639-3.12-.427-.899-1.012-1.603-1.755-2.11s-1.595-.761-2.557-.761-1.864.254-2.707.761c-.842.507-1.582,1.21-2.217,2.11-.635.901-1.152,1.94-1.55,3.12.399,1.179.915,2.218,1.55,3.119.635.899,1.375,1.604,2.217,2.11.843.508,1.745.761,2.707.761s1.814-.252,2.557-.761c.743-.506,1.328-1.21,1.755-2.11.425-.901.639-1.94.639-3.119Z"/>
    <path class="cls-51" d="M633.523,576.719c-1.795,0-3.392-.389-4.787-1.164-1.397-.776-2.495-1.857-3.292-3.243-.798-1.387-1.197-3.001-1.197-4.842,0-1.821.375-3.419,1.129-4.795.752-1.376,1.795-2.452,3.129-3.227,1.332-.776,2.861-1.164,4.584-1.164s3.214.44,4.474,1.319c1.26.88,2.235,2.116,2.924,3.709.69,1.593,1.035,3.466,1.035,5.617h-14.5v-3.073h12.732l-1.768,1.148c-.055-1.158-.295-2.151-.72-2.979-.427-.828-.998-1.464-1.715-1.91-.715-.444-1.564-.667-2.542-.667-1.035,0-1.937.238-2.707.714-.772.475-1.374,1.143-1.809,2.001-.435.859-.653,1.878-.653,3.057,0,1.304.258,2.432.775,3.383s1.252,1.681,2.204,2.188,2.08.761,3.387.761c1.179,0,2.384-.212,3.617-.636s2.322-1.019,3.264-1.784v2.918c-.942.828-2.09,1.478-3.441,1.955-1.352.475-2.725.714-4.121.714Z"/>
    <path class="cls-72" d="M642.2,558.717h16.322v3.166h-16.322v-3.166ZM648.593,560.114h3.537v16.17h-3.537v-16.17Z"/>
    <path class="cls-50" d="M660.753,576.283v-17.567h3.537v16.449l-1.252-1.862h6.583c.962,0,1.714-.273,2.258-.821.544-.548.815-1.299.815-2.251,0-.971-.272-1.732-.815-2.28-.545-.548-1.297-.823-2.258-.823h-6.474v-2.886h6.937c1.25,0,2.339.254,3.264.761s1.645,1.21,2.162,2.11c.517.901.775,1.951.775,3.151s-.258,2.255-.775,3.165-1.237,1.614-2.162,2.111c-.925.496-2.004.745-3.237.745h-9.358Z"/>
  </g>
  <g>
    <path class="cls-73" d="M392.792,504.606c6.235,1.107,6.501,8.691,5.672,13.728-.27,1.639-2.056,3.215-1.914,3.97.081.434,1.459,1.507,1.937,2.794,1.221,3.289.811,14.421-3.68,14.421h-33.906v-34.913h31.892ZM370.3,512.663v5.371h18.8v-5.371h-18.8ZM369.629,531.463h19.135c1.568-1.299,1.505-4.169,0-5.371h-18.128l-.901,1.111-.106,4.26Z"/>
    <path class="cls-61" d="M92.658,504.782c5.457-.793,21.184-.855,26.697-.19,3.447.416,6.622,2.726,7.05,6.378.579,4.947.484,16.471.011,21.526-.353,3.77-1.514,6.547-5.717,7.039-6.419.752-21.679.621-28.246.017-3.492-.321-5.922-1.97-6.362-5.724-.535-4.57-.616-19.072.058-23.472.588-3.832,2.971-5.06,6.511-5.575ZM116.99,531.463v-17.792l-1.007-1.007h-19.471l-1.007,1.007v17.792h21.485Z"/>
    <path class="cls-56" d="M627.954,504.606c.562.1,3.725,1.76,4.156,2.22,2.176,2.318,2.162,14.136.792,16.828-1.669,3.281-5.4,3.741-8.638,4.112l12.082,11.753h-13.093c-.855,0-10.387-10.688-12.434-11.737l-7.373-.348v12.085h-9.4v-20.142h29.542v-6.714h-29.206l-.901-1.113c-.192-.61-.087-1.253-.14-1.874-.144-1.666-.331-4.035,1.041-5.07h33.571Z"/>
    <path class="cls-37" d="M41.12,512.663c.731-1.895-.909-7.294,1.105-7.96,9.926.489,21.033-.983,30.814-.124,8.582.754,8.357,7.119,7.682,14.45-.595,6.466-1.887,7.089-7.705,8.42-.806.184-1.214-.498-1.005.982l11.408,11.088h-12.421c-.929,0-10.79-10.991-12.434-11.737-2.019-.917-5.155-.079-7.373-.348v12.085h-10.071l.671-20.142h28.871c-.249-2.211.834-5.116-1.007-6.714h-28.535Z"/>
    <path class="cls-36" d="M161.303,525.42v-20.814c2.982.418,7.073-1.049,9.4,1.007v33.906h-9.735l-20.478-21.485v21.485h-9.4v-33.906c2.606-1.903,7.507-.997,10.728-.657,5.896,6.416,11.724,12.894,17.594,19.333.598.656.59,1.436,1.891,1.131Z"/>
    <path class="cls-46" d="M284.171,525.42v-20.814h8.728v34.913l-9.387-.348-19.483-21.137v21.485h-9.4v-33.906c2.403-1.878,7.044-1.017,10.059-.659,6.166,6.165,11.724,12.897,17.593,19.335.598.656.59,1.436,1.891,1.131Z"/>
    <path class="cls-42" d="M538.992,512.663h-26.856v5.371h14.1v8.057h-14.1v5.371h26.856v8.057h-36.256v-34.913h35.249c1.969,1.949.659,5.467,1.007,8.057Z"/>
    <path class="cls-31" d="M296.928,539.52c-.336-.242.671-.865.671-1.007v-19.135h9.4v12.085h17.792l1.007-1.007v-16.114c0-.119-1.56-1.679-1.679-1.679h-27.192c.334-1.824-.945-7.294,1.101-7.963,8.632.383,18.239-.852,26.752-.083,6.125.553,9.567,2.71,10.344,9.128.474,3.918-.131,14.58-.598,18.724-.162,1.442-.46,2.845-1.328,4.043-.514.71-3.878,3.007-4.378,3.007h-31.892Z"/>
    <path class="cls-41" d="M249.929,504.606v8.057h-25.178c-1.568,1.299-1.505,4.169,0,5.371h12.085c1.969,1.949.659,5.467,1.007,8.057h-13.093l-.89,1.07.89,4.302h25.178v8.057h-34.913v-34.913h34.913Z"/>
    <path class="cls-9" d="M467.151,504.606v13.093l1.007,1.007h19.471c.74-.519.705-.614.719-1.392.071-3.97-.577-8.011-.089-12.079l9.106-.629v34.913h-9.4v-12.757h-20.814v12.757h-9.4v-34.913h9.4Z"/>
    <path class="cls-20" d="M589.348,539.52h-9.735l-2.457-4.59-21.6-.136-2.8,4.726h-9.735l17.783-34.251c1.087-.967,8.526-1.053,9.74-.322.555.334,1.661,2.461,2.13,3.241,6.07,10.087,10.898,21.074,16.674,31.332ZM571.891,526.763l-5.38-11.412c-2.523,3.15-5.332,7.39-6.034,11.412h11.414Z"/>
    <path class="cls-10" d="M36.42,504.606v8.057H9.564l.629,5.75,13.849.25c.481.691.487,5.336.289,6.418-.524,2.862-2.905,1.033-5.004.978-3.247-.084-6.523.126-9.763.032v13.428H.164v-34.913h36.256Z"/>
    <path class="cls-18" d="M662.531,512.663v26.856h-10.071v-26.856h-13.428l.629-7.764,35.198-.199c1.735.568,1.483,7.634.437,8.352-.48.404-.846-.389-1.015-.389h-11.75Z"/>
    <path class="cls-28" d="M431.398,504.606h11.414l-16.419,21.516-.644,12.765-9.122.632v-12.421c0-1.403-15.771-18.927-16.785-22.492h10.407l10.805,13.403c1.229.263,9.415-11.299,10.344-13.403Z"/>
    <path class="cls-3" d="M210.316,504.606v8.057h-12.757l-.705,26.821-8.695.036v-25.849l-1.007-1.007h-12.421c.348-2.59-.962-6.108,1.007-8.057h34.578Z"/>
  </g>
  <g>
    <g>
      <path class="cls-66" d="M509.079,273.901c-2.726-1.789-7.457-.173-8.034,2.927-1.159,6.236,8.88,7.965,9.931,1.91.256-1.496-.577-3.968-1.897-4.837ZM509.079,273.901c-2.726-1.789-7.457-.173-8.034,2.927-1.159,6.236,8.88,7.965,9.931,1.91.256-1.496-.577-3.968-1.897-4.837ZM509.079,273.901c-2.726-1.789-7.457-.173-8.034,2.927-1.159,6.236,8.88,7.965,9.931,1.91.256-1.496-.577-3.968-1.897-4.837ZM509.079,273.901c-2.726-1.789-7.457-.173-8.034,2.927-1.159,6.236,8.88,7.965,9.931,1.91.256-1.496-.577-3.968-1.897-4.837ZM509.079,273.901c-2.726-1.789-7.457-.173-8.034,2.927-1.159,6.236,8.88,7.965,9.931,1.91.256-1.496-.577-3.968-1.897-4.837ZM509.079,273.901c-2.726-1.789-7.457-.173-8.034,2.927-1.159,6.236,8.88,7.965,9.931,1.91.256-1.496-.577-3.968-1.897-4.837ZM509.079,273.901c-2.726-1.789-7.457-.173-8.034,2.927-1.159,6.236,8.88,7.965,9.931,1.91.256-1.496-.577-3.968-1.897-4.837ZM509.079,273.901c-2.726-1.789-7.457-.173-8.034,2.927-1.159,6.236,8.88,7.965,9.931,1.91.256-1.496-.577-3.968-1.897-4.837ZM509.079,273.901c-2.726-1.789-7.457-.173-8.034,2.927-1.159,6.236,8.88,7.965,9.931,1.91.256-1.496-.577-3.968-1.897-4.837ZM509.079,273.901c-2.726-1.789-7.457-.173-8.034,2.927-1.159,6.236,8.88,7.965,9.931,1.91.256-1.496-.577-3.968-1.897-4.837ZM471.973,244.366c.929,7.945,1.194,15.97,1.862,23.938.721,8.664,1.871,17.353,2.596,26.025.282,3.385.2,7.08.434,10.494l29.818,17.132,29.263-16.774,4.831-60.815h-68.803ZM515.173,270.331l-6.354-3.643,5.221-1.548,1.133,5.191ZM513.311,263.391l-7.292,2.296-7.309-2.469c3.737-10.63,11.242-10.586,14.601.173ZM498.324,265.277c.816-.531,3.997,1.468,5.256,1.242l-6.359,3.811c-.339-.438.538-4.342,1.102-5.054ZM488.796,279.349l5.599,4.511,1.701,7.265c-11.845,2.778-15.165-3.896-7.3-11.776ZM494.595,281.419c-.334.318-4.076-2.742-4.145-3.293-.109-.909,3.967-3.856,4.145-3.639-.347,2.3-.716,4.664,0,6.931ZM494.4,272.051l-5.599,4.511c-7.778-7.74-4.575-14.792,7.296-11.776l-1.697,7.265ZM497.221,285.926c2.053.997,4.024,2.436,6.359,2.778-1.224,1.463-3.828,1.407-5.612,2.075l-.747-4.853ZM509.947,298.933c-5.265,5.476-9.636-1.91-11.237-6.244,2.318-.277,5.078-2.143,7.331-2.239,1.914-.084,5.109,2.03,7.261,2.075.456.591-2.648,5.673-3.355,6.409ZM514.049,290.779c-1.55-.7-3.49-.551-4.853-1.564-.256-.478,1.471-1.106,1.91-1.343.456-.241,3.906-2.091,4.071-1.942l-1.128,4.849ZM515.208,283.353c-.386.491-8.143,4.612-8.85,4.652-1.267.072-8.802-3.96-9.54-5.002-.612-.86-.569-9.099.065-10.039.673-.993,7.535-4.7,8.863-4.994l.916-.012c2.001,1.403,7.023,2.939,8.503,4.636,1.146,1.319,1.085,9.436.043,10.759ZM516.336,264.81c12.096-2.328,14.796,3.675,7.257,11.756-.681.161-1.059-.897-1.45-1.254-.977-.893-4.115-2.963-4.505-3.618-.265-.442-1.55-6.618-1.302-6.883ZM521.887,277.829c.143.804-3.377,2.963-4.089,3.59v-6.931c1.632.728,2.691,2.264,4.089,3.341ZM516.332,291.093l1.163-7.181c1.311-.458,2.596-1.447,3.672-2.316,1.046-.84,1.411-2.336,2.617-1.737.955.474,3.642,4.99,3.941,6.055,1.779,6.357-6.914,6.461-11.393,5.178ZM509.079,273.901c-2.726-1.789-7.457-.173-8.034,2.927-1.159,6.236,8.88,7.965,9.931,1.91.256-1.496-.577-3.968-1.897-4.837ZM509.079,273.901c-2.726-1.789-7.457-.173-8.034,2.927-1.159,6.236,8.88,7.965,9.931,1.91.256-1.496-.577-3.968-1.897-4.837ZM509.079,273.901c-2.726-1.789-7.457-.173-8.034,2.927-1.159,6.236,8.88,7.965,9.931,1.91.256-1.496-.577-3.968-1.897-4.837ZM509.079,273.901c-2.726-1.789-7.457-.173-8.034,2.927-1.159,6.236,8.88,7.965,9.931,1.91.256-1.496-.577-3.968-1.897-4.837ZM509.079,273.901c-2.726-1.789-7.457-.173-8.034,2.927-1.159,6.236,8.88,7.965,9.931,1.91.256-1.496-.577-3.968-1.897-4.837ZM509.079,273.901c-2.726-1.789-7.457-.173-8.034,2.927-1.159,6.236,8.88,7.965,9.931,1.91.256-1.496-.577-3.968-1.897-4.837ZM509.079,273.901c-2.726-1.789-7.457-.173-8.034,2.927-1.159,6.236,8.88,7.965,9.931,1.91.256-1.496-.577-3.968-1.897-4.837ZM509.079,273.901c-2.726-1.789-7.457-.173-8.034,2.927-1.159,6.236,8.88,7.965,9.931,1.91.256-1.496-.577-3.968-1.897-4.837ZM509.079,273.901c-2.726-1.789-7.457-.173-8.034,2.927-1.159,6.236,8.88,7.965,9.931,1.91.256-1.496-.577-3.968-1.897-4.837ZM509.079,273.901c-2.726-1.789-7.457-.173-8.034,2.927-1.159,6.236,8.88,7.965,9.931,1.91.256-1.496-.577-3.968-1.897-4.837ZM509.079,273.901c-2.726-1.789-7.457-.173-8.034,2.927-1.159,6.236,8.88,7.965,9.931,1.91.256-1.496-.577-3.968-1.897-4.837Z"/>
      <g>
        <path class="cls-77" d="M478.842,227.951h5.809c2.282,0,3.976,1.677,3.976,4.028,0,1.59-.864,2.904-2.196,3.492l1.366,2.299h1.227v2.282h-3.181l-2.265-4.132h-1.625v4.132h-3.112v-12.102ZM484.184,233.466c.761,0,1.435-.501,1.435-1.487,0-1.054-.674-1.539-1.435-1.539h-2.23v3.025h2.23Z"/>
        <path class="cls-1" d="M490.581,240.053v-12.102h8.367v2.956h-5.29v1.884h4.08v2.472h-4.08v1.867h5.29v2.922h-8.367Z"/>
        <path class="cls-53" d="M500.695,230.631v-2.68h10.321v12.102h-3.112v-3.077h-3.769l-.674,3.077h-3.302l2.23-9.336-1.695-.087ZM507.905,234.209v-3.302h-2.421l-.726,3.302h3.147Z"/>
        <path class="cls-59" d="M520.681,233.12l-.294-2.351c-.674-.19-1.21-.294-1.763-.277-1.798.017-2.766,1.124-2.766,3.752,0,2.455,1.418,3.285,3.025,3.354,1.211.052,2.386-.173,3.596-.519l.519,2.351c-1.158.692-2.818.882-4.357.813-3.976-.156-5.895-2.403-5.895-5.999,0-3.976,1.66-6.466,5.982-6.466,1.971,0,2.766.363,4.374.968v4.374h-2.42Z"/>
        <path class="cls-55" d="M524.485,230.994v-3.043h9.941v3.043h-3.406v9.059h-3.129v-9.059h-3.406Z"/>
      </g>
    </g>
    <g>
      <path class="cls-13" d="M558.67,281.091c6.956-8.393,12.507-17.465,16.722-26.929-.249.033-.491.076-.762.076-.158,0-.294-.033-.445-.044-3.533,7.839-7.999,15.39-13.434,22.486-1.137,1.485-8.956,10.802-9.821,10.666-4.476-3.256-9.961,1.031-7.676,6.129,2.227,4.971,9.465,2.871,9.348-2.058-.025-1.066-.887-2.606-.619-3.237.282-.666,5.641-5.826,6.687-7.088Z"/>
      <path class="cls-16" d="M548.87,71.631c-2.343-2.007-4.737-3.945-7.203-5.769-8.628-6.384-23.319-15.204-33.527-18.227-.379-.112-2.354-.673-1.835.305,15.324,5.939,29.356,14.149,41.687,24.57.236-.341.539-.635.879-.88Z"/>
      <path class="cls-15" d="M593.758,147.981c-.081,0-.155.02-.235.024-.454-4.72-1.287-8.064-2.808-12.984-3.465-11.202-7.916-22.656-14.267-32.71-.232.102-1.088.824-1.321.923,8.78,13.649,13.124,26.931,17.082,45.013-2.052.659-3.547,2.56-3.547,4.831,0,2.815,2.282,5.097,5.097,5.097s5.096-2.282,5.096-5.097-2.282-5.097-5.096-5.097Z"/>
    </g>
    <g>
      <path class="cls-63" d="M499.902,17.307l-5.534,61.997-24.947,7.028c-1.818.23-3.334-.977-4.844-1.393-6.744-1.859-13.595-3.446-20.164-5.844l-5.839-61.788h61.328ZM488.585,29.354h-38.695l2.19,24.093h25.736c.078,0,.414-.546.544-.365l-.892,9.873c-2.05.355-6.357,2.345-8.105,2.434-1.611.082-6.466-2.294-8.47-2.502l-.416-6.155h-7.484c-.373.273-.396.319-.397.745-.011,3.67,1.163,7.869.98,11.632l15.78,4.304,15.347-4.247,2.422-23.751h-27.744l-.73-8.031h29.204l.73-8.031Z"/>
      <g>
        <path class="cls-70" d="M448.57,4.61h4.365V.07l3.155-.07v12.271h-3.155v-4.698h-4.365l.018,4.698h-3.191V0h3.191l-.018,4.61Z"/>
        <path class="cls-6" d="M457.668,3.085V0h10.08v3.085h-3.453v9.185h-3.173V3.085h-3.453Z"/>
        <path class="cls-2" d="M475.268,12.271l-2.279-6.486c-.158-.579-.526-1.753-.754-2.647h-.07c.088.946.14,2.068.14,2.647v6.486h-2.98V0h4.277l2.84,8.169,2.857-8.169h4.295v12.271h-2.997v-6.486c0-.579.052-1.7.14-2.647h-.052c-.21.894-.596,2.068-.771,2.647l-2.296,6.486h-2.349Z"/>
        <path class="cls-39" d="M485.698,12.271V0h3.103v9.186h4.803v3.085h-7.906Z"/>
      </g>
    </g>
    <g>
      <path class="cls-52" d="M618.382,180.768l-5.541,59.747-24.037,6.936-24.413-6.844-5.425-59.723,59.416-.116ZM606.627,192.393l-36.388.071.367,7.734,24.61-.048-10.881,9.162.012,6.328c1.815-.044,3.645.043,5.464.004,1.072-.023,1.945-.512,3.118-.359.463.06,3.237,1.431,3.568,1.72,1.221,1.066.2,6.029.111,7.692l-8.383,2.388-7.678-2.346-.058-4.169-7.735.015,1.062,10.03,14.9,4.246,14.914-4.224,1.46-16.899c-.11-.447-6.788-4.067-7.731-4.998-.294-.29-.497-.323-.37-.852,3.454-2.006,6-5.435,9.304-7.754.195-2.258.723-4.777.716-7.023-.001-.411-.025-.455-.384-.717Z"/>
      <g>
        <path class="cls-45" d="M580.878,169.943l-.291-2.295c-.659-.184-1.182-.285-1.723-.267-1.756.02-2.699,1.103-2.694,3.669.005,2.397,1.391,3.205,2.961,3.269,1.182.048,2.33-.173,3.511-.513l.511,2.295c-1.13.677-2.75.866-4.253.802-3.883-.144-5.761-2.335-5.768-5.847-.008-3.883,1.608-6.317,5.829-6.325,1.925-.004,2.702.349,4.273.937l.008,4.271-2.364.005Z"/>
        <path class="cls-62" d="M590.863,173.418c.016-.439-.204-.692-.728-.876-1.183-.42-2.585-.755-3.7-1.293-1.149-.555-1.995-1.38-1.998-2.917-.039-2.786,2.475-3.601,4.923-3.639,1.502-.037,2.972.197,4.07.6l.007,3.765-2.228.004-.257-1.688c-.321-.117-.98-.201-1.587-.183-1.047.053-2.042.308-2.091,1.135.001.625.491.843.948,1.011.997.336,1.841.553,2.855.923,1.521.537,2.872,1.244,2.893,2.999.004,2.178-1.648,3.565-5.007,3.589-1.503.02-3.225-.23-4.171-.65l.62-2.382c.929.268,2.112.553,3.327.551.659-.001,2.11-.089,2.125-.95Z"/>
        <path class="cls-40" d="M601.246,173.398c.016-.439-.204-.692-.728-.876-1.183-.42-2.585-.755-3.7-1.293-1.149-.555-1.995-1.38-1.998-2.917-.039-2.786,2.475-3.601,4.923-3.639,1.502-.037,2.972.197,4.07.6l.007,3.765-2.228.004-.257-1.688c-.321-.117-.98-.201-1.587-.183-1.047.053-2.042.308-2.091,1.135.001.625.491.843.948,1.011.997.336,1.841.553,2.855.923,1.521.537,2.872,1.244,2.893,2.999.004,2.178-1.648,3.565-5.007,3.589-1.502.02-3.225-.23-4.171-.65l.62-2.382c.929.268,2.112.553,3.327.551.659-.001,2.11-.089,2.125-.95Z"/>
      </g>
    </g>
    <g>
      <path class="cls-24" d="M512.051,91.017l5.181,55.442,25.277,6.437,24.92-6.331,5.381-55.197-60.759-.351ZM521.861,140.55l.474-10.66,6.29,1.162-.356,4.326,5.102,1.162v-34.194l6.527.105.119,42.427-18.156-4.326ZM562.09,109.205l-10.087-.317.119,10.765h9.968l-1.187,21.74-15.902,3.272v-6.754l10.918-3.272.474-8.865-11.392,1.372.237-24.697h18.156l-1.304,6.756Z"/>
      <g>
        <path class="cls-21" d="M514.394,87.437c-.605,0-1.411-.149-1.825-.447l.461-1.998c.308.211.749.323,1.153.273.48-.05.893-.409.893-1.191v-5.423h1.729v5.522c0,2.035-.845,3.251-2.41,3.263Z"/>
        <path class="cls-57" d="M517.919,80.575v-1.923h5.733v8.686h-1.729v-2.209h-2.094l-.374,2.209h-1.834l1.239-6.701-.941-.062ZM521.924,83.143v-2.37h-1.344l-.403,2.37h1.748Z"/>
        <path class="cls-23" d="M529.367,78.651h1.978l-2.41,8.686h-2.209l-2.401-8.686h1.969l1.536,5.931,1.536-5.931Z"/>
        <path class="cls-71" d="M531.74,80.575v-1.923h5.733v8.686h-1.729v-2.209h-2.094l-.374,2.209h-1.834l1.239-6.701-.941-.062ZM535.745,83.143v-2.37h-1.344l-.403,2.37h1.748Z"/>
        <path class="cls-48" d="M541.901,84.93c.01-.323-.115-.509-.413-.645-.672-.31-1.469-.558-2.103-.956-.653-.409-1.133-1.018-1.133-2.147-.019-2.047,1.412-2.643,2.804-2.668.855-.025,1.69.149,2.314.447v2.767h-1.267l-.144-1.241c-.183-.087-.557-.149-.903-.136-.595.037-1.162.223-1.191.831,0,.459.278.621.538.745.567.248,1.047.41,1.623.683.864.397,1.632.918,1.642,2.209,0,1.601-.941,2.618-2.852,2.631-.855.012-1.834-.174-2.372-.484l.355-1.75c.528.198,1.201.409,1.892.409.374,0,1.2-.062,1.21-.695Z"/>
        <path class="cls-67" d="M548.749,82.361l-.163-1.688c-.374-.136-.672-.211-.979-.199-.999.013-1.536.807-1.536,2.693,0,1.762.787,2.358,1.681,2.407.672.037,1.325-.124,1.997-.372l.288,1.688c-.643.496-1.565.633-2.42.583-2.208-.112-3.274-1.725-3.274-4.306,0-2.854.922-4.641,3.322-4.641,1.095,0,1.536.261,2.429.695v3.139h-1.344Z"/>
        <path class="cls-27" d="M551.151,78.651h3.226c1.268,0,2.209,1.204,2.209,2.891,0,1.142-.48,2.085-1.22,2.506l.759,1.65h.682v1.638h-1.767l-1.258-2.966h-.903v2.966h-1.728v-8.686ZM554.118,82.61c.422,0,.797-.36.797-1.067,0-.757-.374-1.104-.797-1.104h-1.239v2.171h1.239Z"/>
        <path class="cls-7" d="M559.392,87.337h-1.719v-8.686h1.719v8.686Z"/>
        <path class="cls-43" d="M560.545,78.651h3.149c1.268,0,2.209,1.266,2.209,2.966,0,1.65-.941,2.916-2.209,2.916h-1.431v2.804h-1.719v-8.686ZM563.435,82.759c.432,0,.797-.434.797-1.142,0-.769-.365-1.179-.797-1.179h-1.171v2.32h1.171Z"/>
        <path class="cls-17" d="M566.48,80.835v-2.184h5.521v2.184h-1.892v6.502h-1.738v-6.502h-1.892Z"/>
      </g>
    </g>
    <path class="cls-12" d="M394.895,304.386c.649-3.053,1.387-3.939,1.908-5.725h0c.166-.403.353-.794.524-1.194,24.254,12.312,51.525,17.044,77.909,14.383-.139-.342-.214-.711-.247-1.085-26.223,2.641-53.262-2.103-77.188-14.379,2.803-6.365,6.165-12.424,9.764-18.352,2.232,1.119,4.5,2.179,6.812,3.153,17.452,7.353,35.53,10.054,54.491,9.097-.124-1.824-4.083-1.157-5.532-1.14-19.691.233-38.462-4.167-55.04-12.3,8.768-14.295,18.652-27.965,24.544-43.766,6.894-18.486,8.662-35.935,8.809-55.6l-2.328-22.946c-5.607-22.761-11.816-32.939-25.344-50.528-.386-.502-.509-2.11-1.908-3.817-2.568-3.13-4.072-4.889-6.938-7.907-3.071-3.233-6.341-6.282-9.797-9.099-.338-.275-.641-.509-.968-.771,1.556-1.196,3.097-2.385,4.26-3.113,12.668-7.937,26.467-13.1,40.593-15.656-.017-.409-.019-.819-.043-1.228-16.323,2.851-32.099,9.145-46.014,19.038-6.498-5.099-11.087-7.749-18.306-11.798-.096-.054-.199-.115-.297-.171,11.23-8.925,23.854-16.091,37.401-20.964,1.885,9.277,14.905,11.525,20.181,3.566,8.902-13.43-12.827-24.77-19.568-11.166-1.204,2.43-.716,4.293-1.373,6.648-13.701,5.022-26.409,12.287-37.688,21.307-5.277-3.129-12.471-8.101-18.533-8.703-.752-.075-1.466-.321-2.154-.633-.348-.157-.696-.283-1.045-.381-5.293-2.3-11.927-4.273-17.359-4.728-.399-.033-.788-.104-1.173-.214-7.658-2.205-15.728-2.379-23.601-2.669l-22.163.005c-2.972.177-6.006.671-9.002.926-4.254.362-9.587.096-13.359,1.908-.313.04-.642-.041-.954,0-16.16,2.132-31.73,9.707-44.847,19.084-26.344,18.831-45.137,49.031-50.573,81.107-1.906,11.252.619,23.118-.954,33.397-2.226,14.546-26.898,36.347-30.534,50.573-.594,2.324-1.518,2.421-.541,5.812.734,2.548,2.167,1.813,3.404,2.776,7.713,6.002,20.08,6.903,19.239,17.758l-.155,1.326h0c-1.973,3.941-5.961,5.94-4.794,11.922.75,3.844,9.496,4.532,6.702,9.07-.36.27-.617.669-.954.954-7.469,6.325,1.118,9.957,4.771,13.359.323.301,1.848,1.788,1.908,1.908,1.632,3.226,1.389,7.15.698,11.268-1.886,11.25,1.932,22.698,10.372,30.371l.38.346h0c4.393,2.216,3.255,2.802,9.542,3.817,17.705,2.859,47.944-3.457,58.206,15.267,4.326,7.893,7.39,28.659,8.588,38.168l1.915,36.255s0,0,0,0c13.626-4.067,26.851-9.937,40.069-15.263,6.137-2.473,12.062-5.067,18.13-7.634l52.737-20.259c12.282-4.699,24.373-10.067,36.551-15.042,0,0,0,0,0,0l-9.069-38.232c-2.774-11.691-3.01-23.851-.588-35.62.17-.824.345-1.652.522-2.488Z"/>
    <path class="cls-14" d="M504.903,62.286c-.113.309-.271.603-.468.879,9.923,2.506,19.295,6.579,27.792,12.001.216-.268.444-.498.685-.692-8.574-5.514-18.029-9.634-28.009-12.188Z"/>
    <circle class="cls-47" cx="465.162" cy="288.781" r="5.955"/>
  </g>
</svg>